# xmcd
#
# Track frame offsets:
#	150
#	15376
#	35948
#	48972
#	59135
#	78102
#	91022
#	104397
#	118791
#	129559
#	142318
#	161119
#
# Disc length: 2320 seconds
#
# Revision: 0
# Processed by: cddbd v1.5.2PL0 Copyright (c) Steve Scherf et al.
# Submitted via: audiograbber 1.83.01
#
DISCID=a6090e0c
DTITLE=Tom Jones - The Tom Jones Collection [CD2]
DYEAR=2010
DGENRE=Soul
TTITLE0=Delilah
TTITLE1=The Young New Mexican Puppeteer
TTITLE2=Thunderball
TTITLE3=It´s Not Unusual
TTITLE4=I´ll Never Fall in Love Again
TTITLE5=Help Youself
TTITLE6=A Minute Of Your Time
TTITLE7=Love Me Tonight
TTITLE8=I Get A Kick Out Of You
TTITLE9=A Taste Of Honey
TTITLE10=Georgia On My Mind
TTITLE11=Chills And Fever
EXTD=
EXTT0=
EXTT1=
EXTT2=
EXTT3=
EXTT4=
EXTT5=
EXTT6=
EXTT7=
EXTT8=
EXTT9=
EXTT10=
EXTT11=
PLAYORDER=
